<svg version="1.1" xmlns="http://www.w3.org/2000/svg" xmlns:xlink="http://www.w3.org/1999/xlink" preserveAspectRatio="xMidYMid meet" viewBox="510 294 400 203"><g data-item-type="shape" data-item="Shape" data-logo-item="" id="logo__item--shape_1" class="logo__item">
    <g class="logo__item__inner" transform="translate(533.2999992370605 288.1999969482422) scale(1.9484777348095765 1.9484777348095765) rotate(0 0 0)">
        
<g>
	<linearGradient id="logo__item--shape_1__0" gradientUnits="objectBoundingBox" x1="0.5" y1="0" x2="0.5" y2="1"><stop offset="0" style="stop-color:#1f7fdb"></stop><stop offset="1" style="stop-color:#1b3f46"></stop></linearGradient><filter id="logo__item--shape_1__0_Effect" x="-100%" y="-100%" width="300%" height="300%"><feGaussianBlur in="SourceGraphic" stdDeviation="2" result="glow"></feGaussianBlur><feOffset in="SourceAlpha" dx="1.29" dy="4.83" result="offsetShadow"></feOffset><feGaussianBlur in="offsetShadow" stdDeviation="6" result="shadow"></feGaussianBlur><feMerge><feMergeNode in="glow"></feMergeNode><feMergeNode in="shadow"></feMergeNode><feMergeNode in="SourceGraphic"></feMergeNode></feMerge></filter><polygon fill="url(#logo__item--shape_1__0)" points="21.6,87.3 0.2,51 21.6,14.7 64.3,14.7 85.6,51 64.3,87.3" data-part-id="logo__item--shape_1__0" vector-effect="non-scaling-stroke" stroke="#eee3e3" stroke-width="3" data-filter-shadow="" data-filter-shadow-distance="5" data-filter-shadow-angle="75" filter="url(#logo__item--shape_1__0_Effect)" data-filter-glow="" data-filter-glow-thickness="2"></polygon>
</g>

    </g>
</g><g data-item-type="text" data-item="Business" id="logo__item--business" class="logo__item">
                <g class="logo__item__inner" transform="translate(726.21875 401.7934142788242) scale(1.7995746943115365 1.7995746943115365) rotate(0 0 0)">
                    <text data-part-id="logo__item--business" dy="0" dominant-baseline="auto" alignment-baseline="auto" font-family="Sorts Mill Goudy" font-size="32px" fill="#153037" letter-spacing="0" font-weight="normal" font-style="normal" data-font-family="Sorts Mill Goudy" data-font-weight="normal" data-font-style="normal" data-ttf-url="/builder_assets/fontsttf/font-montserrat-bold-normal.ttf" data-font-filename="sorts-mill-goudy-normal-normal" vector-effect="non-scaling-stroke" stroke="#000000" stroke-width="1">Nordes</text>
                </g>
            </g><g data-item-type="image" data-item="Image" data-logo-item="" id="logo__item--logo_0" class="logo__item">
    <g class="logo__item__inner" transform="translate(550.5108638477413 329.5) scale(0.8950007863941745 0.8950007863941745) rotate(0 0 0)">
        
<g>
	<path fill="#153037" d="M135.7,62.6l-6.6-12.3c-0.7-1.3-2.4-1.9-3.7-1.1l-8.9,4.8c-0.9,0.5-1.4,1.4-1.5,2.3h0c0,0.5,0.1,1,0.3,1.4   l2.8,5.2c-5.6,3.9-11.3,7.7-17.1,11.3c-2.5,1.6-3.8,0.7-4.2-2.3c-0.1-1-0.1-2.1,0-3.1c0.1-5.6,0.6-11.3,0.4-16.9   c-0.1-2,0.3-3.6,1-5.1c2.9-1.7,6-3,9.1-4.1l9.7,4.8c0.9,0.5,2,0.5,3,0.2c1-0.3,1.8-1,2.3-2l6.4-12.9c0.6-1.3,0.5-2.8-0.3-3.9   c-0.4-0.6-0.9-1-1.5-1.3L109,18.6c-1.9-1-4.3-0.2-5.3,1.8l-6.4,12.9c-0.6,1.3-0.5,2.8,0.3,3.9l0,0c0.4,0.6,0.9,1,1.5,1.3l2.5,1.2   c-2,0.9-4,1.8-5.9,2.9c-1.3,0.2-2.3,0.2-3.3-0.2c-0.6-0.7-1.3-1.4-1.9-2l3.3-3c0.5-0.5,0.8-1.2,0.9-1.9c0-0.7-0.2-1.4-0.7-2   l-6.5-7.6c-0.6-0.7-1.6-1.1-2.5-0.9c-0.5,0.1-0.9,0.3-1.2,0.6l-10,9.1c-1.1,1-1.2,2.7-0.2,3.9l6.5,7.6c0.6,0.7,1.6,1.1,2.5,0.9l0,0   c0.5-0.1,0.9-0.3,1.2-0.6l4-3.6c1.2,1.3,2.4,2.6,3.6,3.9c1.4,2.7,2.5,5.5,2.6,8.7c0.1,1.8,0.1,3.5,0.1,5.3   C87.8,56.3,81.3,52,75,47.4c-6.1-4.3-12-9.7-14.3-16.8l11,2c1,0.2,2.1,0,2.9-0.6c0.9-0.6,1.5-1.5,1.6-2.5l2.6-14.2   c0.3-1.4-0.3-2.8-1.3-3.7c-0.5-0.4-1.2-0.7-1.8-0.9L56.3,7.1c-2.1-0.4-4.2,1-4.6,3.1l-2.6,14.2c-0.3,1.4,0.3,2.8,1.3,3.7l0,0   c0.5,0.4,1.2,0.7,1.8,0.9l4.6,0.8c1.6,6.7,5.8,12.1,11.1,16.7c7.9,6.8,17.2,12.4,25.8,18.3c0.1,0.1,0.3,0.2,0.4,0.2   c-0.1,2.2-0.3,4.5-0.4,6.7c-0.4,5-1.4,9.9-3.2,14.5c-1.1-0.8-1.9-1.8-2.5-2.9l3.9-3.5c0.5-0.5,0.8-1.2,0.9-1.9c0-0.7-0.2-1.4-0.7-2   l-6.5-7.6c-0.6-0.7-1.6-1.1-2.5-0.9c-0.5,0.1-0.9,0.3-1.2,0.6l-10,9.1c-1.1,1-1.2,2.7-0.2,3.9l6.5,7.6c0.6,0.7,1.6,1.1,2.5,0.9   c0.5-0.1,0.9-0.3,1.2-0.6l2.7-2.5c1.1,1.6,2.4,3,4.1,4c-0.9,1.8-2,3.6-3.2,5.3c-3,4.3-5.9,4.8-9.5,1c-4.4-4.6-8.3-9.6-12.3-14.6   c-1.4-1.8-1.8-4-1.5-6.1c0,0-0.1-0.1-0.1-0.1l2.5,1.2c0.6,0.3,1.4,0.3,2.1,0.1c0.7-0.2,1.3-0.7,1.6-1.4l4.6-8.9   c0.4-0.9,0.4-1.9-0.1-2.7c-0.3-0.4-0.6-0.7-1-0.9l-12.3-5.8c-1.3-0.6-3-0.1-3.7,1.3L51,67.7c-0.4,0.9-0.4,1.9,0.1,2.7   c0.3,0.4,0.6,0.7,1,0.9l5.5,2.6l-0.5,0.9c-0.9,0-1.9-0.4-2.8-1.2c-3.3-2.9-6.2-6.3-9.5-9.1c-2.6-2.2-4.2-4.7-4.8-7.5   c0.5-2.4,1-4.7,1.5-7.1l7-0.5c1-0.1,2-0.5,2.7-1.3c0.7-0.8,1-1.8,1-2.9l-0.9-14.4c-0.1-1.4-0.9-2.6-2.2-3.3c-0.6-0.3-1.3-0.4-2-0.4   l-19.8,1.3c-2.2,0.1-3.8,2-3.7,4.2l0.9,14.4c0.1,1.4,0.9,2.7,2.2,3.3h0c0.6,0.3,1.3,0.4,2,0.4l8.1-0.5l-1.6,7.4   c-0.8-0.3-1.6-0.5-2.5-0.7l0.4-1.7c0.2-0.7,0.1-1.4-0.3-2.1c-0.4-0.6-1-1.1-1.7-1.3L21.8,49c-0.9-0.3-1.9,0-2.6,0.6   c-0.3,0.3-0.6,0.7-0.7,1.2L15,64c-0.4,1.4,0.5,2.9,1.9,3.4l9.6,2.9c0.9,0.3,1.9,0,2.6-0.6v0c0.3-0.3,0.6-0.7,0.7-1.2l1.8-7   c1.2,0.2,2.4,0.6,3.5,1c3.6,3.2,7.2,6.4,10.9,9.7c10.1,8.9,18,19.3,23.9,31.3c-8-1.2-15.2-5.4-20.3-11.7l4.6-3.7   c0.7-0.5,1.1-1.3,1.2-2.2c0.1-0.9-0.2-1.7-0.7-2.4l-7.5-9.4c-0.7-0.9-1.9-1.4-3.1-1.2c-0.6,0.1-1.1,0.3-1.5,0.7L29.9,83.8   c-1.4,1.1-1.6,3.2-0.5,4.6l7.5,9.3c0.7,0.9,1.9,1.4,3.1,1.2h0c0.6-0.1,1.1-0.3,1.5-0.7l4.6-3.7c6.4,7.9,15.9,13,26.1,13.7   c1,2.2,2.2,4.4,2.7,6.7c-1.1,7-2.9,13.9-5.3,20.6c-0.6,1.5-0.1,2.8,0.9,3.5c0.2,0.4,0.5,0.7,0.7,0.8c5.7,1.3,11.5,2.1,17.2,0.1   c0.5-0.2,1.1-1.1,1.1-1.6c0.5-0.7,0.7-1.7,0.3-2.8c-2-7.5-3-15.1-2.9-22.8c0.3-1.4,0.6-2.7,0.9-4.1c0.1,0,0.2,0,0.2-0.1   c3.5-1.8,7.1-3.5,10.6-5.3l5.3,5.5c0.5,0.5,1.2,0.8,1.9,0.8c0.7,0,1.4-0.2,2-0.7l7.4-6.8c0.7-0.7,1-1.6,0.8-2.6   c-0.1-0.4-0.3-0.9-0.7-1.2l-9.5-9.7c-1-1.1-2.8-1.1-3.9-0.1l-7.4,6.8c-0.7,0.7-1,1.6-0.8,2.6v0c0.1,0.5,0.3,0.9,0.7,1.2l0.8,0.8   c-2,1-4,2-6.1,3c0.4-1.6,0.9-3.1,1.3-4.6c0.2-0.8,0.5-1.5,0.8-2.3c6.4-7.8,15.9-12.4,26-12.9l2.4,2.6c0.4,0.4,0.9,0.6,1.4,0.7   s1.1-0.2,1.5-0.5l5.6-5c0.5-0.5,0.8-1.2,0.6-1.9c-0.1-0.4-0.2-0.7-0.5-0.9l-6.9-7.7c-0.8-0.8-2.1-0.9-2.9-0.1l-5.6,5   c-0.5,0.5-0.8,1.2-0.6,1.9c0.1,0.3,0.2,0.7,0.5,0.9l0.7,0.8c-6.1,0.8-11.7,3-16.7,6.3c1-1.4,2.1-2.7,3.3-4   c5.9-6,12.6-10.7,19.9-14.6l1.8,3.4c0.3,0.7,0.9,1.1,1.6,1.3c0.7,0.2,1.5,0.1,2.1-0.2l8.9-4.8c0.9-0.5,1.4-1.4,1.5-2.3   C136,63.5,135.9,63,135.7,62.6z M100.6,35.5c-0.2-0.1-0.3-0.4-0.2-0.7l6.4-12.9c0.1-0.1,0.2-0.2,0.3-0.3c0.1,0,0.3,0,0.4,0   l17.8,8.8c0.1,0,0.1,0.1,0.2,0.2c0.1,0.1,0.1,0.3,0,0.5l-6.4,12.9c-0.1,0.2-0.4,0.4-0.7,0.2L106,38.1c0,0,0,0,0,0c0,0,0,0,0,0   L100.6,35.5z M82.2,44.7c-0.1,0.1-0.4,0.1-0.5,0l-6.5-7.6c-0.1-0.1-0.1-0.2-0.1-0.3c0-0.1,0-0.2,0.1-0.2l10-9.1   c0,0,0.1-0.1,0.2-0.1c0.1,0,0.2,0,0.3,0.1l6.5,7.6c0.1,0.1,0.1,0.4,0,0.5L82.2,44.7z M52.4,25.1l2.6-14.2c0-0.1,0.1-0.2,0.2-0.3   c0.1-0.1,0.2-0.1,0.4-0.1l19.5,3.6c0.1,0,0.2,0.1,0.2,0.1c0.1,0.1,0.2,0.3,0.2,0.5l-2.6,14.2c0,0.3-0.3,0.5-0.6,0.4l-19.5-3.6   C52.6,25.6,52.4,25.3,52.4,25.1z M80.2,87.1c-0.1,0.1-0.4,0.1-0.5,0l-6.5-7.6c-0.1-0.1-0.1-0.2-0.1-0.3c0-0.1,0-0.2,0.1-0.2l10-9.1   c0,0,0.1-0.1,0.2-0.1c0.1,0,0.2,0,0.3,0.1l6.5,7.6c0.1,0.1,0.1,0.4,0,0.5l-6.6,6c-0.2,0-0.3,0.1-0.5,0.1c0,0.1,0.1,0.2,0.1,0.3   L80.2,87.1z M53.2,68.7l4.6-8.9c0-0.1,0.1-0.1,0.2-0.2c0.1,0,0.2,0,0.3,0l12.3,5.8c0.1,0,0.1,0.1,0.1,0.1c0.1,0.1,0.1,0.2,0,0.3   L66,74.8C65.9,75,65.7,75,65.6,75l-12.3-5.8C53.1,69.1,53.1,68.9,53.2,68.7z M28.6,47.4c-0.3,0-0.5-0.2-0.5-0.5l-0.9-14.4   c0-0.1,0-0.3,0.1-0.4c0.1-0.1,0.2-0.2,0.3-0.2l19.8-1.3c0.1,0,0.2,0,0.3,0.1c0.2,0.1,0.3,0.2,0.3,0.4l0.9,14.4   c0,0.3-0.2,0.5-0.5,0.5L28.6,47.4z M27.6,67.7c0,0.2-0.2,0.3-0.4,0.2l-9.6-2.9c-0.1,0-0.2-0.1-0.2-0.2c0-0.1-0.1-0.2,0-0.3   l3.5-13.1c0-0.1,0-0.1,0.1-0.2c0.1-0.1,0.2-0.1,0.3-0.1l9.6,2.9c0.2,0.1,0.3,0.3,0.2,0.4L27.6,67.7z M39.7,96   c-0.2,0.1-0.4,0.1-0.6-0.1l-7.5-9.4c-0.1-0.1-0.1-0.2-0.1-0.3c0-0.1,0.1-0.2,0.1-0.3l12.9-10.3c0.1,0,0.1-0.1,0.2-0.1   c0.1,0,0.3,0,0.4,0.1l7.5,9.3c0.1,0.2,0.1,0.4-0.1,0.6L39.7,96z M96.3,97l7.4-6.8c0.1-0.1,0.2-0.1,0.3-0.1c0.1,0,0.2,0,0.2,0.1   l9.5,9.7c0,0,0.1,0.1,0.1,0.2c0,0.1,0,0.2-0.1,0.3l-7.4,6.8c-0.1,0.1-0.4,0.1-0.5,0l-9.5-9.7C96.2,97.3,96.2,97.1,96.3,97z    M114.2,76.9c-0.1-0.1-0.1-0.3,0-0.4l5.6-5c0.1,0,0.1-0.1,0.2-0.1c0.1,0,0.1,0,0.2,0.1l6.9,7.7c0,0,0.1,0.1,0.1,0.1   c0,0.1,0,0.2-0.1,0.2l-5.6,5c-0.1,0.1-0.3,0.1-0.4,0l-5.3-5.8c0,0,0,0,0,0h0L114.2,76.9z M133.4,64.2l-8.9,4.8   c-0.2,0.1-0.4,0-0.5-0.1l-6.6-12.3c-0.1-0.2,0-0.4,0.1-0.5l8.9-4.8c0.1,0,0.2-0.1,0.3,0c0.1,0,0.2,0.1,0.2,0.2l6.6,12.3   c0,0.1,0,0.1,0,0.2C133.6,64,133.5,64.1,133.4,64.2z" data-part-id="logo__item--logo_0__0"></path>
</g>

    </g>
</g></svg>